<?xml version="1.0" standalone="no"?>
<!DOCTYPE svg PUBLIC "-//W3C//DTD SVG 20010904//EN"
 "http://www.w3.org/TR/2001/REC-SVG-20010904/DTD/svg10.dtd">
<svg version="1.0" xmlns="http://www.w3.org/2000/svg"
 width="1920.000000pt" height="823.000000pt" viewBox="0 0 1920.000000 823.000000"
 preserveAspectRatio="xMidYMid meet">

<g transform="translate(0.000000,823.000000) scale(0.100000,-0.100000)"
fill="#000000" stroke="none">
<path d="M4458 8225 c-2 -3 -288 -5 -634 -5 -346 0 -624 -4 -617 -8 6 -4 -37
-6 -95 -6 -75 1 -91 0 -53 -5 41 -4 55 -10 57 -23 1 -10 -1 -18 -4 -18 -4 0
-6 -1514 -4 -3365 1 -1851 3 -3365 5 -3365 2 0 23 10 48 22 24 12 48 21 52 20
5 -1 5 3 1 9 -5 9 -2 10 9 6 10 -3 17 -2 17 3 0 6 -5 10 -12 10 -6 0 -8 3 -5
6 4 4 13 1 22 -6 11 -9 15 -9 15 -1 0 7 3 10 8 7 4 -2 18 1 31 8 17 10 20 15
11 21 -7 4 -16 2 -21 -6 -6 -10 -8 -8 -7 7 2 21 4 21 33 7 29 -14 35 -13 71 5
21 10 51 22 66 26 14 3 41 18 60 33 18 15 27 20 19 10 -12 -16 -12 -17 5 -11
10 4 25 12 32 17 11 9 21 11 70 16 7 0 11 4 9 9 -3 4 7 8 21 8 15 1 41 7 57
14 17 7 39 14 50 15 22 3 129 32 155 42 8 3 22 7 30 8 8 2 94 19 190 38 617
126 1292 140 2098 42 501 -61 1023 -160 2007 -384 890 -202 1113 -249 1455
-306 684 -115 1067 -129 1603 -59 566 73 957 192 1427 432 821 420 944 474
1340 595 559 172 997 237 1785 267 591 23 852 52 1186 135 575 143 1226 463
1944 957 l180 124 3 2327 2 2327 -7358 0 c-4048 0 -7361 -2 -7364 -5z m-1225
-52 c-7 -2 -19 -2 -25 0 -7 3 -2 5 12 5 14 0 19 -2 13 -5z m105 0 c-16 -2 -40
-2 -55 0 -16 2 -3 4 27 4 30 0 43 -2 28 -4z m57 -6599 c-16 -7 -25 -13 -20
-14 6 0 2 -5 -8 -11 -10 -6 -21 -8 -24 -5 -4 3 -1 6 6 6 7 0 9 5 6 10 -3 6
-13 10 -21 10 -9 0 -12 -5 -8 -12 4 -7 3 -8 -5 -4 -19 12 0 28 26 21 14 -3 22
-2 20 2 -3 4 9 8 26 9 l32 1 -30 -13z m-255 -74 c-8 -5 -11 -13 -6 -17 4 -4
13 -1 19 7 14 17 57 25 57 10 0 -11 -36 -35 -65 -44 -18 -5 -21 -2 -19 21 2
34 1 33 17 33 8 0 7 -3 -3 -10z"/>
<path d="M3155 1480 c-3 -5 -2 -10 4 -10 5 0 13 5 16 10 3 6 2 10 -4 10 -5 0
-13 -4 -16 -10z"/>
<path d="M2978 1423 c6 -3 10 -9 6 -14 -7 -12 10 -11 22 1 7 7 11 6 11 -5 0
-15 -9 -19 -34 -16 -6 1 -14 -2 -17 -7 -10 -16 44 -4 77 17 17 11 28 21 22 22
-33 4 -98 5 -87 2z"/>
<path d="M2779 1331 c11 -7 11 -9 0 -14 -8 -3 -9 -6 -3 -6 6 -1 16 5 22 12 8
10 6 13 -11 14 -15 2 -18 0 -8 -6z"/>
</g>
</svg>
