<?xml version="1.0" standalone="no"?>
<!DOCTYPE svg PUBLIC "-//W3C//DTD SVG 20010904//EN"
 "http://www.w3.org/TR/2001/REC-SVG-20010904/DTD/svg10.dtd">
<svg version="1.0" xmlns="http://www.w3.org/2000/svg"
 width="192.000000pt" height="192.000000pt" viewBox="0 0 192.000000 192.000000"
 preserveAspectRatio="xMidYMid meet">

<g transform="translate(0.000000,192.000000) scale(0.100000,-0.100000)"
fill="" stroke="none">
<path d="M530 1580 c0 -5 15 -16 34 -24 37 -16 56 -57 56 -126 0 -51 32 -96
89 -124 66 -34 77 -47 85 -101 5 -30 23 -68 53 -113 26 -37 62 -100 81 -141
32 -70 33 -75 17 -87 -10 -8 -22 -15 -28 -17 -14 -4 -96 -521 -84 -533 5 -5
140 452 141 476 0 14 -3 36 -7 50 -6 17 -5 20 2 10 11 -19 78 -221 131 -400
l40 -135 -5 75 c-5 71 -52 383 -76 500 -10 50 -20 64 -103 150 -97 101 -123
142 -132 212 -4 34 0 53 20 91 29 54 33 104 11 147 -23 44 -63 60 -148 60 -59
0 -79 4 -100 20 -26 21 -77 27 -77 10z m285 -85 c19 -18 25 -35 25 -69 0 -37
-5 -48 -31 -70 -43 -36 -91 -35 -130 3 -21 22 -29 39 -29 66 0 82 108 128 165
70z m198 -557 c6 -19 -3 -38 -18 -38 -18 0 -28 17 -21 35 7 18 33 20 39 3z"/>
<path d="M1121 1463 c-23 -11 -40 -31 -53 -60 -22 -50 -18 -88 14 -128 36 -46
8 -149 -62 -228 l-29 -34 28 -27 29 -28 6 39 c4 21 12 45 17 53 8 12 9 11 5
-5 -20 -78 -21 -74 16 -65 54 13 70 21 133 68 58 43 62 44 120 39 36 -3 98
-20 155 -42 99 -40 152 -46 215 -25 34 11 75 44 75 60 0 6 -39 10 -89 10 -74
0 -99 4 -158 29 -106 43 -199 64 -262 58 -52 -6 -83 -22 -159 -83 -18 -15 -35
-24 -38 -21 -18 17 96 157 128 157 26 0 85 59 94 95 10 38 -14 103 -47 127
-37 28 -97 32 -138 11z m108 -28 c56 -28 64 -110 16 -155 -33 -31 -97 -31
-130 0 -85 80 9 210 114 155z"/>
<path d="M542 1164 c-30 -8 -87 -28 -129 -44 -62 -25 -88 -30 -159 -30 -68 0
-84 -3 -84 -15 0 -21 54 -52 113 -65 47 -10 56 -8 154 30 63 25 128 43 166 46
59 6 64 4 106 -27 24 -19 55 -42 70 -51 26 -18 107 -35 117 -25 13 12 -41 84
-92 125 -93 74 -151 86 -262 56z"/>
<path d="M565 1069 c-69 -16 -207 -73 -213 -88 -7 -19 17 -31 68 -31 33 0 71
12 140 45 52 25 106 45 120 45 22 0 23 2 9 15 -20 20 -74 26 -124 14z"/>
<path d="M1284 1070 c-32 -13 -39 -30 -13 -30 12 0 66 -20 121 -45 65 -29 114
-45 139 -45 41 0 79 14 79 29 0 11 -137 67 -211 86 -61 17 -85 18 -115 5z"/>
<path d="M650 1020 c-14 -4 -62 -26 -107 -48 -70 -34 -80 -42 -67 -53 29 -24
95 -14 183 30 47 22 91 41 99 41 9 0 5 8 -11 20 -26 21 -54 24 -97 10z"/>
<path d="M1201 1010 c-15 -13 -18 -20 -9 -20 8 0 52 -18 99 -41 89 -43 155
-53 184 -29 14 11 3 19 -77 57 -113 54 -163 62 -197 33z"/>
<path d="M673 938 c-45 -22 -80 -45 -77 -50 3 -4 29 -8 59 -8 43 0 69 8 136
42 79 41 82 43 54 49 -63 14 -92 8 -172 -33z"/>
<path d="M1106 973 l-30 -5 49 -30 c63 -39 118 -58 169 -58 72 0 70 13 -8 54
-74 37 -124 48 -180 39z"/>
<path d="M850 935 c-25 -14 -57 -31 -72 -38 -30 -12 -35 -22 -17 -33 18 -11
144 -7 167 5 20 10 20 13 5 51 -9 22 -21 40 -27 40 -6 0 -31 -11 -56 -25z"/>
<path d="M1066 913 c8 -49 28 -65 74 -57 66 12 66 19 -3 58 -36 20 -68 36 -72
36 -3 0 -3 -17 1 -37z"/>
</g>
</svg>
